PathFileType	4	(X/Y/Z)	OpenSim_Sub09_CSStiffKnee_Magnet.trc
DataRate	CameraRate	NumFrames	NumMarkers	Units	OrigDataRate	OrigDataStartFrame	OrigNumFrames
100	100	27	8	m	100	1	7127
Frame#	Time	torso_imu_offset_imu	pelvis_imu_offset_imu	tibia_r_imu_offset_imu	femur_r_imu_offset_imu	tibia_l_imu_offset_imu	femur_l_imu_offset_imu	toes_r_imu_offset_imu	toes_l_imu_offset_imu
				X1	Y1	Z1	X2	Y2	Z2	X3	Y3	Z3	X4	Y4	Z4	X5	Y5	Z5	X6	Y6	Z6	X7	Y7	Z7	X8		Y8	Z8	

1	0	-0.92314689	-0.22440049	0.08858399	-0.71255949	0.34142414	-0.52690079	-0.60533255	-0.61340983	-0.25662620	-0.75261698	-0.41206685	-0.04039028	-0.62917913	0.53051140	0.13159002	-0.67376291	0.10890736	0.24706941	-0.66028205	-0.20755716	-0.40481567	-0.72379054	-0.13221227	-0.39426876
2	0.01000000	-0.91849443	-0.22304403	0.09151474	-0.71248172	0.33596007	-0.52478945	-0.60544194	-0.61259203	-0.26625294	-0.74811142	-0.41576121	-0.03284624	-0.62562084	0.53155052	0.13466736	-0.68119094	0.11127460	0.25509369	-0.66193799	-0.20808205	-0.40630960	-0.72542476	-0.13354808	-0.39289867
3	0.02000000	-0.92187276	-0.21818587	0.09184409	-0.71111617	0.33221674	-0.53125061	-0.60703290	-0.60741546	-0.26075391	-0.74585081	-0.40808320	-0.03182455	-0.62597049	0.52775573	0.13295603	-0.68176106	0.10973558	0.25359842	-0.66266609	-0.20410357	-0.40718907	-0.72405705	-0.13466787	-0.39786191
4	0.03000000	-0.92245170	-0.22111711	0.09407336	-0.71175921	0.33633915	-0.52549451	-0.60495347	-0.61183186	-0.26262272	-0.75170654	-0.41269343	-0.03431247	-0.62547399	0.52639239	0.13596332	-0.67629392	0.10737851	0.24838098	-0.65884289	-0.20983860	-0.40668310	-0.72387058	-0.13262957	-0.39674123
5	0.04000000	-0.92333089	-0.21879445	0.09624659	-0.71135068	0.33814095	-0.53002351	-0.61380647	-0.61241900	-0.26586584	-0.74715233	-0.41261285	-0.03924772	-0.62379509	0.52645937	0.13643206	-0.67795261	0.11129396	0.24618015	-0.66230336	-0.20508221	-0.40710653	-0.72105466	-0.13194273	-0.39441291
6	0.05000000	-0.92109606	-0.22043834	0.09341545	-0.71352134	0.33559113	-0.52615031	-0.60586763	-0.61255519	-0.26380401	-0.74679495	-0.41074646	-0.03609030	-0.62723054	0.52819004	0.13130743	-0.67467755	0.11419342	0.25391606	-0.66202197	-0.20320614	-0.40551950	-0.72818366	-0.13213885	-0.39584579
7	0.06000000	-0.91737335	-0.22232476	0.09677388	-0.71074595	0.33825460	-0.52907781	-0.60241448	-0.61443042	-0.25969596	-0.74705200	-0.40909347	-0.03955682	-0.61987329	0.52898349	0.13043964	-0.67704656	0.11555715	0.25542607	-0.66255454	-0.20647174	-0.40349787	-0.72676144	-0.13198186	-0.39081646
8	0.07000000	-0.91835008	-0.22169454	0.09764404	-0.70906153	0.33959606	-0.53171234	-0.60640994	-0.60864339	-0.25803922	-0.75247531	-0.41043056	-0.03379052	-0.62159557	0.52867064	0.12853168	-0.67645545	0.10811601	0.25147573	-0.66366006	-0.20692730	-0.40167290	-0.71868878	-0.13241370	-0.39695283
9	0.08000000	-0.92274585	-0.22244108	0.10068524	-0.70987428	0.33032915	-0.53351556	-0.60590761	-0.60824785	-0.26028938	-0.75238265	-0.40917277	-0.04191074	-0.62861219	0.52918794	0.13071731	-0.67762017	0.10656217	0.25438680	-0.66197891	-0.20639803	-0.40970249	-0.72553988	-0.13008976	-0.39862380
10	0.09000000	-0.92427747	-0.21866133	0.09245337	-0.70590787	0.33476179	-0.52926772	-0.60999411	-0.61089128	-0.26060642	-0.75434317	-0.41036989	-0.03959982	-0.62716240	0.52667767	0.13722389	-0.67492905	0.11164865	0.24672523	-0.65920129	-0.20725488	-0.40657284	-0.72832514	-0.13268126	-0.39551194
11	0.10000000	-0.92224006	-0.21900532	0.09871043	-0.70650591	0.33865128	-0.53624223	-0.60748465	-0.61291084	-0.26243118	-0.74675363	-0.40933612	-0.04228760	-0.62835967	0.52992583	0.13185935	-0.67510939	0.11277810	0.24934953	-0.66191126	-0.20250727	-0.40734817	-0.72974754	-0.13636275	-0.39340268
12	0.11000000	-0.92119714	-0.21898656	0.10125278	-0.70718173	0.33552483	-0.53550468	-0.60824632	-0.60323722	-0.26282174	-0.75338565	-0.40977716	-0.04207247	-0.62910938	0.52966097	0.13350222	-0.67624664	0.11241428	0.25190957	-0.66432132	-0.21032026	-0.40828444	-0.72700869	-0.13519423	-0.39251961
13	0.12000000	-0.92357027	-0.21501477	0.09975464	-0.70911178	0.33734583	-0.53479802	-0.60695925	-0.60489172	-0.26793285	-0.75215866	-0.41296748	-0.03868805	-0.62908922	0.52881448	0.13380633	-0.67666497	0.11210520	0.25458910	-0.65763005	-0.21054190	-0.40305753	-0.72592636	-0.13236038	-0.39351023
14	0.13000000	-0.92208736	-0.22204291	0.09824176	-0.70772056	0.33495486	-0.53698213	-0.60844194	-0.60763128	-0.27065340	-0.74966462	-0.40978922	-0.04425515	-0.62722278	0.52724051	0.13267020	-0.68300984	0.10291082	0.25714191	-0.66282039	-0.20845881	-0.40536135	-0.72362436	-0.13255247	-0.38878064
15	0.14000000	-0.92320941	-0.22201056	0.09948322	-0.70805380	0.33244910	-0.53071308	-0.60512216	-0.60823991	-0.26717862	-0.74646648	-0.40950635	-0.03960509	-0.62692253	0.52654044	0.13244424	-0.68309877	0.10721344	0.25270511	-0.66471640	-0.20750506	-0.40887365	-0.72836779	-0.12846194	-0.39262998
16	0.15000000	-0.92278359	-0.21592005	0.09811353	-0.71169047	0.33689623	-0.52979238	-0.60883925	-0.61168012	-0.27225646	-0.74822306	-0.41440396	-0.03851552	-0.62464683	0.52632307	0.13517876	-0.68279427	0.11103355	0.25285475	-0.66144886	-0.20637549	-0.40783653	-0.73122913	-0.13052062	-0.39723328
17	0.16000000	-0.92014220	-0.21809117	0.09935079	-0.70838866	0.33512741	-0.53560831	-0.60962298	-0.60672242	-0.26187094	-0.74888825	-0.41351751	-0.04148239	-0.62771812	0.52858721	0.12990500	-0.67775383	0.10839378	0.25478827	-0.66098776	-0.20843761	-0.40500057	-0.72688992	-0.13275652	-0.39615192
18	0.17000000	-0.91771558	-0.22215939	0.09834548	-0.70602123	0.33223289	-0.53215147	-0.60916446	-0.60631128	-0.26378711	-0.74418121	-0.41311480	-0.04450036	-0.62792473	0.52602365	0.13024172	-0.67407150	0.10769429	0.24986169	-0.66145743	-0.20751167	-0.40632637	-0.72549759	-0.13006109	-0.39136111
19	0.18000000	-0.91721203	-0.21854686	0.10016639	-0.70082877	0.33920645	-0.53549540	-0.61472249	-0.60713267	-0.27171456	-0.74442472	-0.40971081	-0.04089581	-0.62452992	0.52228910	0.13871544	-0.67212360	0.09834169	0.25372552	-0.65931064	-0.20623386	-0.40699641	-0.72621839	-0.13169954	-0.39226637
20	0.19000000	-0.91785934	-0.21882157	0.10615505	-0.70866664	0.33364199	-0.54344607	-0.61035811	-0.60892686	-0.27014803	-0.74863691	-0.40972539	-0.04289834	-0.62562532	0.52364305	0.13744076	-0.68028402	0.10515230	0.24650530	-0.66193603	-0.20813350	-0.40819090	-0.72385528	-0.13027764	-0.39122166
21	0.20000000	-0.91622404	-0.21999655	0.10383050	-0.71020538	0.33335286	-0.53585438	-0.60976824	-0.60809116	-0.25849057	-0.75139068	-0.41285261	-0.04493365	-0.62887712	0.52578673	0.14295285	-0.67977019	0.10434868	0.24054674	-0.66419659	-0.20902986	-0.40972133	-0.72556091	-0.13183099	-0.39194008
22	0.21000000	-0.92572568	-0.21949490	0.09976416	-0.71100483	0.33784346	-0.53647085	-0.61113145	-0.60723003	-0.26020379	-0.75180975	-0.41105441	-0.04309847	-0.62683385	0.52892176	0.13801818	-0.67660485	0.09922032	0.25247312	-0.65972210	-0.20737417	-0.40430964	-0.72278441	-0.12878173	-0.39336048
23	0.22000000	-0.92510759	-0.22113944	0.10184822	-0.70831797	0.33563481	-0.54037785	-0.61068664	-0.60595587	-0.26789723	-0.75157161	-0.41301347	-0.03990219	-0.63013848	0.52516247	0.13405397	-0.68184715	0.10053386	0.24834676	-0.66219986	-0.20471043	-0.40208416	-0.72190940	-0.12990360	-0.39073710
24	0.23000000	-0.92598190	-0.22284248	0.10150714	-0.70885140	0.33765438	-0.54270066	-0.61116197	-0.60368173	-0.27431735	-0.75299509	-0.40710036	-0.04296216	-0.62924182	0.52766032	0.13844096	-0.67730337	0.10493421	0.25603783	-0.66203553	-0.20626955	-0.40467069	-0.72902280	-0.13641228	-0.39359746
25	0.24000000	-0.91802952	-0.21679796	0.10800468	-0.70773792	0.33285710	-0.54194961	-0.60903559	-0.60218293	-0.26822496	-0.75760668	-0.40496085	-0.04680422	-0.63237003	0.52636161	0.13990189	-0.67836288	0.10535860	0.25133946	-0.66174640	-0.20633725	-0.40313405	-0.72696637	-0.13161776	-0.39650615
26	0.25000000	-0.91718286	-0.21827785	0.10188515	-0.70824476	0.33283572	-0.53668971	-0.61073640	-0.60798527	-0.26405739	-0.75602729	-0.41166291	-0.04545300	-0.63025239	0.52180483	0.13845757	-0.68014130	0.09846053	0.24594990	-0.66779279	-0.21046791	-0.40520469	-0.72745533	-0.13099825	-0.39974970
27	0.26000000	-0.92209655	-0.21984052	0.10426554	-0.71007201	0.33154496	-0.53734935	-0.60660749	-0.60794004	-0.26958250	-0.74873089	-0.41180082	-0.04233970	-0.62761997	0.52599571	0.13477884	-0.67968783	0.09932241	0.24980210	-0.65960496	-0.20645823	-0.40901675	-0.72608393	-0.13239836	-0.39487383
